<?xml version="1.0" encoding="utf-8"?>
<!-- Generator: Adobe Illustrator 24.2.0, SVG Export Plug-In . SVG Version: 6.00 Build 0)  -->
<svg version="1.1" id="图层_1" xmlns="http://www.w3.org/2000/svg" xmlns:xlink="http://www.w3.org/1999/xlink" x="0px" y="0px"
	 viewBox="0 0 16 16" style="enable-background:new 0 0 16 16;" xml:space="preserve">
<style type="text/css">
	.st0{fill:none;}
	.st1{fill:#ffffff;}
</style>
<g id="钱包" transform="translate(16.000000, 8.000000)">
	<rect id="Rectangle-45-Copy-10" x="-16" y="-8" class="st0" width="16" height="16"/>
	<g id="形状结合" transform="translate(0.800000, 0.800000)">
		<path class="st1" d="M-1.6,4.3c0,0.7-0.6,1.3-1.3,1.3l0,0h-11.8C-15.4,5.6-16,5-16,4.3l0,0v-11c0-0.7,0.6-1.3,1.3-1.3l0,0h9.2
			c0.7,0,1.3,0.6,1.3,1.3l0,0l0.4,1.9l0.9,0c0.7,0,1.2,0.5,1.3,1.2l0,0.1V4.3z M-2.9-3.5l-0.7,0l0,0l-11.1,0l0,7.8h11.8l0-1.9
			l-3.3,0c-1,0-1.9-0.8-2-1.8l0-0.1c0-1.1,0.9-1.9,2-1.9l0,0l3.3,0L-2.9-3.5z M-2.9-0.2h-3.3c-0.4,0-0.7,0.3-0.7,0.6
			c0,0.4,0.3,0.6,0.7,0.6l0,0h3.3V-0.2z M-5.5-6.7h-9.2v1.9l9.5,0l-0.3-1.7l0-0.1V-6.7z"/>
	</g>
</g>
</svg>
